<?xml version="1.0" ?><svg id="Layer_1_1_" style="enable-background:new 0 0 64 64;" version="1.1" viewBox="0 0 64 64" xml:space="preserve" xmlns="http://www.w3.org/2000/svg" xmlns:xlink="http://www.w3.org/1999/xlink"><path d="M46,46c1.657,0,3-1.343,3-3V31h-6v12C43,44.657,44.343,46,46,46z"/><path d="M42,43V16H19v30h24.726C42.698,45.39,42,44.28,42,43z M22,20h8v7h-8V20z M28,42h-6v-2h6V42z M39,42h-9v-2h9V42z M39,37H22  v-2h17V37z M39,32H22v-2h17V32z M39,27h-7v-2h7V27z M39,22h-7v-2h7V22z"/><path d="M6.421,41.946c-0.312-0.918-0.576-1.865-0.785-2.814l-1.953,0.432c0.226,1.02,0.509,2.037,0.844,3.024L6.421,41.946z"/><path d="M57.595,41.896l1.896,0.639c0.333-0.987,0.615-2.006,0.838-3.027l-1.954-0.428C58.167,40.03,57.905,40.978,57.595,41.896z"/><path d="M3.173,36.468l1.988-0.218C5.056,35.289,5.002,34.307,5,33.332l-2,0.004C3.002,34.382,3.061,35.436,3.173,36.468z"/><path d="M61,33.278v-0.113h-2v0.113c0,0.975-0.052,1.957-0.156,2.918l1.988,0.214C60.944,35.378,61,34.324,61,33.278z"/><path d="M5.613,27.528l-1.954-0.424c-0.221,1.018-0.389,2.061-0.498,3.099l1.989,0.21C5.252,29.446,5.408,28.476,5.613,27.528z"/><path d="M58.352,27.369c0.211,0.945,0.373,1.915,0.481,2.882l1.987-0.222c-0.116-1.039-0.29-2.081-0.516-3.096L58.352,27.369z"/><path d="M5.647,21.157c-0.437,0.947-0.825,1.929-1.156,2.919l1.896,0.634c0.308-0.921,0.67-1.835,1.076-2.716L5.647,21.157z"/><path d="M56.469,21.848c0.412,0.881,0.779,1.792,1.092,2.709l1.893-0.646c-0.336-0.985-0.73-1.965-1.173-2.911L56.469,21.848z"/><path d="M24.702,5.998l-0.54-1.926c-1.005,0.282-2.005,0.622-2.972,1.011l0.746,1.855C22.835,6.576,23.766,6.26,24.702,5.998z"/><path d="M42.65,5.018c-0.97-0.383-1.972-0.717-2.979-0.993l-0.528,1.929c0.938,0.257,1.87,0.568,2.772,0.924L42.65,5.018z"/><path d="M30.457,5.044l-0.113-1.997c-1.044,0.059-2.093,0.175-3.118,0.345l0.327,1.973C28.506,5.207,29.483,5.099,30.457,5.044z"/><path d="M36.602,3.362c-1.029-0.164-2.079-0.273-3.121-0.325L33.38,5.034c0.97,0.049,1.948,0.151,2.907,0.304L36.602,3.362z"/><path d="M41.904,57.037c-0.9,0.362-1.831,0.678-2.766,0.94l0.54,1.926c1.005-0.282,2.005-0.622,2.972-1.011L41.904,57.037z"/><path d="M21.925,57.097l-0.735,1.86c0.97,0.383,1.972,0.717,2.979,0.993l0.528-1.929C23.76,57.764,22.827,57.453,21.925,57.097z"/><path d="M36.287,58.61c-0.954,0.158-1.931,0.266-2.904,0.321l0.113,1.997c1.044-0.059,2.093-0.175,3.118-0.345L36.287,58.61z"/><path d="M27.552,58.637l-0.314,1.976c1.029,0.164,2.079,0.273,3.121,0.325l0.101-1.997C29.489,58.892,28.511,58.79,27.552,58.637z"/><path d="M10,18c4.418,0,8-3.582,8-8s-3.582-8-8-8s-8,3.582-8,8S5.582,18,10,18z M9,11h1c-1.657,0-3-1.343-3-3s1.343-3,3-3  s3,1.343,3,3s-1.343,3-3,3h1c2.177,0,3.939,1.741,3.99,3.905C13.72,16.197,11.955,17,10,17c-1.955,0-3.72-0.803-4.99-2.095  C5.061,12.741,6.823,11,9,11z"/><path d="M54,18c4.418,0,8-3.582,8-8s-3.582-8-8-8s-8,3.582-8,8S49.582,18,54,18z M53,11h1c-1.657,0-3-1.343-3-3s1.343-3,3-3  s3,1.343,3,3s-1.343,3-3,3h1c2.177,0,3.939,1.741,3.99,3.905C57.72,16.197,55.955,17,54,17c-1.955,0-3.72-0.803-4.99-2.095  C49.061,12.741,50.823,11,53,11z"/><path d="M10,62c4.418,0,8-3.582,8-8s-3.582-8-8-8s-8,3.582-8,8S5.582,62,10,62z M9,55h1c-1.657,0-3-1.343-3-3s1.343-3,3-3  s3,1.343,3,3s-1.343,3-3,3h1c2.177,0,3.939,1.741,3.99,3.905C13.72,60.197,11.955,61,10,61c-1.955,0-3.72-0.803-4.99-2.095  C5.061,56.741,6.823,55,9,55z"/><path d="M54,46c-4.418,0-8,3.582-8,8s3.582,8,8,8s8-3.582,8-8S58.418,46,54,46z M54,61c-1.955,0-3.72-0.803-4.99-2.095  C49.061,56.741,50.823,55,53,55h1c-1.657,0-3-1.343-3-3s1.343-3,3-3s3,1.343,3,3s-1.343,3-3,3h1c2.177,0,3.939,1.741,3.99,3.905  C57.72,60.197,55.955,61,54,61z"/></svg>